# xmcd CD database file
#
# Track frame offsets:
#	150
#	39377
#	47252
#	97024
#	127525
#	149560
#
# Disc length: 2709 seconds
#
# Revision: 0
# Processed by: cddbd v1.5.2PL0 Copyright (c) Steve Scherf et al.
# Submitted via: CDex 1.51
#
DISCID=450a9306
DTITLE=Art Ensemble Of Chicago - Nice Guys
DYEAR=1978
DGENRE=Jazz
TTITLE0=Ja
TTITLE1=Nice Guys
TTITLE2=Folkus
TTITLE3=597-59
TTITLE4=Cyp
TTITLE5=Dreaming Of The Master
EXTD=YEAR: 1978
EXTT0=
EXTT1=
EXTT2=
EXTT3=
EXTT4=
EXTT5=
PLAYORDER=
